<svg width="33" height="32" viewBox="0 0 33 32" fill="none" xmlns="http://www.w3.org/2000/svg">
<path d="M16.5 12V18.9333M16.5 22.6667H16.5133M29.4732 24L18.8066 5.33331C18.574 4.92291 18.2367 4.58156 17.8291 4.34407C17.4216 4.10657 16.9583 3.98145 16.4866 3.98145C16.0149 3.98145 15.5516 4.10657 15.144 4.34407C14.7364 4.58156 14.3992 4.92291 14.1666 5.33331L3.49991 24C3.26482 24.4071 3.14154 24.8692 3.14258 25.3393C3.14363 25.8095 3.26894 26.271 3.50583 26.6771C3.74273 27.0832 4.08277 27.4194 4.4915 27.6517C4.90023 27.8841 5.36312 28.0042 5.83324 28H27.1666C27.6344 27.9995 28.0939 27.8759 28.4989 27.6417C28.904 27.4074 29.2402 27.0708 29.4739 26.6655C29.7076 26.2602 29.8306 25.8005 29.8305 25.3326C29.8304 24.8648 29.7072 24.4052 29.4732 24Z" stroke="#A2A2A2" stroke-width="2" stroke-linecap="round" stroke-linejoin="round"/>
</svg>
