<svg width="41" height="40" viewBox="0 0 41 40" fill="none" xmlns="http://www.w3.org/2000/svg">
<path d="M20.5 14.9998V23.6664M20.5 28.3331H20.5167M36.7165 29.9997L23.3832 6.66639C23.0925 6.1534 22.6709 5.7267 22.1614 5.42984C21.652 5.13297 21.0729 4.97656 20.4832 4.97656C19.8936 4.97656 19.3145 5.13297 18.805 5.42984C18.2955 5.7267 17.8739 6.1534 17.5832 6.66639L4.24988 29.9997C3.95602 30.5087 3.80193 31.0862 3.80323 31.6739C3.80453 32.2616 3.96118 32.8385 4.25729 33.3461C4.55341 33.8537 4.97846 34.274 5.48937 34.5644C6.00029 34.8548 6.57889 35.005 7.16655 34.9997H33.8332C34.418 34.9991 34.9924 34.8447 35.4987 34.5519C36.0049 34.2591 36.4252 33.8382 36.7174 33.3316C37.0096 32.8249 37.1633 32.2504 37.1631 31.6655C37.163 31.0807 37.009 30.5062 36.7165 29.9997Z" stroke="#A2A2A2" stroke-width="2" stroke-linecap="round" stroke-linejoin="round"/>
</svg>
