<svg width="155" height="155" viewBox="0 0 155 155" fill="none" xmlns="http://www.w3.org/2000/svg">
<circle opacity="0.22" cx="77.5" cy="77.5" r="77.5" fill="#D6D6D6"/>
<path d="M86 42V58C86 60.1217 86.8429 62.1566 88.3431 63.6569C89.8434 65.1571 91.8783 66 94 66H112M62 82H62.04M94 82H94.04M92 42H50C47.8783 42 45.8434 42.8429 44.3431 44.3431C42.8429 45.8434 42 47.8783 42 50V106C42 110.4 45.6 114 50 114H106C108.122 114 110.157 113.157 111.657 111.657C113.157 110.157 114 108.122 114 106V64L92 42Z" stroke="#BBBBBB" stroke-width="4" stroke-linecap="round" stroke-linejoin="round"/>
<path d="M70 98C70 98 73.2 94 78 94C83.2 94 86 98 86 98" stroke="#BBBBBB" stroke-width="4" stroke-linecap="round" stroke-linejoin="round"/>
</svg>
