<svg width="155" height="155" viewBox="0 0 155 155" fill="none" xmlns="http://www.w3.org/2000/svg">
<circle opacity="0.22" cx="77.5" cy="77.5" r="77.5" fill="#D6D6D6"/>
<path d="M58 74V58C58 52.6957 60.1071 47.6086 63.8579 43.8579C67.6086 40.1071 72.6957 38 78 38C83.3043 38 88.3914 40.1071 92.1421 43.8579C95.8929 47.6086 98 52.6957 98 58V74M50 74H106C110.418 74 114 77.5817 114 82V110C114 114.418 110.418 118 106 118H50C45.5817 118 42 114.418 42 110V82C42 77.5817 45.5817 74 50 74Z" stroke="#BBBBBB" stroke-width="4" stroke-linecap="round" stroke-linejoin="round"/>
</svg>
