<svg width="24" height="24" viewBox="0 0 24 24" fill="none" xmlns="http://www.w3.org/2000/svg">
<path d="M12.3333 13.3333H12.3417M15.6667 8.33333V6.66667C15.6667 6.22464 15.4911 5.80072 15.1785 5.48816C14.866 5.17559 14.442 5 14 5H10.6667C10.2246 5 9.80072 5.17559 9.48816 5.48816C9.1756 5.80072 9 6.22464 9 6.66667V8.33333M20.6667 14.1667C18.194 15.7991 15.2963 16.6694 12.3333 16.6694C9.37038 16.6694 6.47267 15.7991 4 14.1667M5.66667 8.33333H19C19.9205 8.33333 20.6667 9.07952 20.6667 10V18.3333C20.6667 19.2538 19.9205 20 19 20H5.66667C4.74619 20 4 19.2538 4 18.3333V10C4 9.07952 4.74619 8.33333 5.66667 8.33333Z" stroke="#26262A" stroke-width="1.6" stroke-linecap="round" stroke-linejoin="round"/>
</svg>
