<svg width="24" height="24" viewBox="0 0 24 24" fill="none" xmlns="http://www.w3.org/2000/svg">
<path d="M18.3333 7.5H10.8333M13.3333 15.8333H5.83333M13.3333 15.8333C13.3333 17.214 14.4526 18.3333 15.8333 18.3333C17.214 18.3333 18.3333 17.214 18.3333 15.8333C18.3333 14.4526 17.214 13.3333 15.8333 13.3333C14.4526 13.3333 13.3333 14.4526 13.3333 15.8333ZM10 7.5C10 8.88071 8.88071 10 7.5 10C6.11929 10 5 8.88071 5 7.5C5 6.11929 6.11929 5 7.5 5C8.88071 5 10 6.11929 10 7.5Z" stroke="#26262A" stroke-width="1.6" stroke-linecap="round" stroke-linejoin="round"/>
</svg>
