<svg width="24" height="24" viewBox="0 0 24 24" fill="none" xmlns="http://www.w3.org/2000/svg">
<path d="M9 11.5065H9.00833M12.3333 11.5065H12.3417M15.6667 11.5065H15.675M8.91667 18.1732C10.5071 18.9891 12.3367 19.2101 14.0757 18.7964C15.8147 18.3826 17.3488 17.3614 18.4015 15.9167C19.4541 14.472 19.9562 12.6988 19.8172 10.9167C19.6781 9.13456 18.9072 7.46069 17.6432 6.19671C16.3792 4.93273 14.7053 4.16176 12.9232 4.02273C11.1411 3.8837 9.36789 4.38575 7.92318 5.43842C6.47847 6.49109 5.45724 8.02514 5.04352 9.76414C4.6298 11.5031 4.85079 13.3327 5.66667 14.9232L4 19.8399L8.91667 18.1732Z" stroke="#226AFC" stroke-width="1.6" stroke-linecap="round" stroke-linejoin="round"/>
</svg>
