<svg width="24" height="24" viewBox="0 0 24 24" fill="none" xmlns="http://www.w3.org/2000/svg">
<path d="M9.00004 12.3337L10.6667 14.0004L14 10.6671M18.1667 13.167C18.1667 17.3337 15.25 19.417 11.7834 20.6254C11.6018 20.6869 11.4047 20.6839 11.225 20.617C7.75004 19.417 4.83337 17.3337 4.83337 13.167V7.33371C4.83337 7.11269 4.92117 6.90073 5.07745 6.74445C5.23373 6.58817 5.44569 6.50037 5.66671 6.50037C7.33337 6.50037 9.41671 5.50037 10.8667 4.23371C11.0433 4.08287 11.2678 4 11.5 4C11.7322 4 11.9568 4.08287 12.1334 4.23371C13.5917 5.50871 15.6667 6.50037 17.3334 6.50037C17.5544 6.50037 17.7663 6.58817 17.9226 6.74445C18.0789 6.90073 18.1667 7.11269 18.1667 7.33371V13.167Z" stroke="#26262A" stroke-width="1.6" stroke-linecap="round" stroke-linejoin="round"/>
</svg>
