<svg width="13" height="12" viewBox="0 0 13 12" fill="none" xmlns="http://www.w3.org/2000/svg">
<g clip-path="url(#clip0_1278_5126)">
<path d="M2.99976 10.5004H9.99976M6.28072 1.63333C6.30231 1.59413 6.33401 1.56145 6.37253 1.53868C6.41105 1.51592 6.45498 1.50391 6.49972 1.50391C6.54447 1.50391 6.58839 1.51592 6.62692 1.53868C6.66544 1.56145 6.69714 1.59413 6.71872 1.63333L8.19472 4.43533C8.22992 4.50021 8.27905 4.55649 8.33858 4.60014C8.39811 4.64378 8.46656 4.6737 8.53902 4.68776C8.61149 4.70181 8.68616 4.69965 8.75769 4.68142C8.82922 4.66319 8.89582 4.62935 8.95272 4.58233L11.0912 2.75033C11.1323 2.71694 11.1829 2.69744 11.2357 2.69463C11.2885 2.69182 11.3409 2.70585 11.3853 2.7347C11.4296 2.76355 11.4637 2.80573 11.4826 2.85517C11.5014 2.90461 11.5041 2.95876 11.4902 3.00983L10.0732 8.13283C10.0443 8.23766 9.98199 8.33021 9.89573 8.39643C9.80947 8.46266 9.70397 8.49896 9.59522 8.49983H3.40472C3.29589 8.49907 3.19028 8.46282 3.10392 8.39658C3.01756 8.33035 2.95517 8.23774 2.92622 8.13283L1.50972 3.01033C1.49585 2.95926 1.49853 2.90511 1.51739 2.85567C1.53625 2.80623 1.57032 2.76405 1.61467 2.7352C1.65903 2.70635 1.7114 2.69232 1.76424 2.69513C1.81708 2.69794 1.86767 2.71744 1.90872 2.75083L4.04672 4.58283C4.10362 4.62985 4.17023 4.66369 4.24176 4.68192C4.31328 4.70015 4.38796 4.70231 4.46042 4.68826C4.53289 4.67421 4.60134 4.64428 4.66087 4.60064C4.7204 4.55699 4.76953 4.50071 4.80472 4.43583L6.28072 1.63333Z" stroke="#226AFC" stroke-width="1.2" stroke-linecap="round" stroke-linejoin="round"/>
</g>
<defs>
<clipPath id="clip0_1278_5126">
<rect width="12" height="12" fill="white" transform="translate(0.5)"/>
</clipPath>
</defs>
</svg>
