<svg width="18" height="18" viewBox="0 0 18 18" fill="none" xmlns="http://www.w3.org/2000/svg">
<rect x="0.5" y="0.5" width="17" height="17" rx="3.5" fill="white"/>
<rect x="0.5" y="0.5" width="17" height="17" rx="3.5" stroke="#D6D6D6"/>
<path d="M5.25 9.1875C5.25 9.96626 5.48093 10.7275 5.91359 11.3751C6.34625 12.0226 6.9612 12.5273 7.68068 12.8253C8.40017 13.1233 9.19187 13.2013 9.95567 13.0493C10.7195 12.8974 11.4211 12.5224 11.9717 11.9717C12.5224 11.4211 12.8974 10.7195 13.0493 9.95567C13.2013 9.19187 13.1233 8.40017 12.8253 7.68068C12.5273 6.9612 12.0226 6.34625 11.3751 5.91359C10.7275 5.48093 9.96626 5.25 9.1875 5.25C8.08673 5.25414 7.03017 5.68366 6.23875 6.44875L5.25 7.4375M5.25 7.4375V5.25M5.25 7.4375H7.4375" stroke="#656565" stroke-width="1.2" stroke-linecap="round" stroke-linejoin="round"/>
</svg>
