<svg width="12" height="12" viewBox="0 0 12 12" fill="none" xmlns="http://www.w3.org/2000/svg">
<path d="M6 5V8M4.5 6.5H7.5M10 10C10.2652 10 10.5196 9.89464 10.7071 9.70711C10.8946 9.51957 11 9.26522 11 9V4C11 3.73478 10.8946 3.48043 10.7071 3.29289C10.5196 3.10536 10.2652 3 10 3H6.05C5.88276 3.00164 5.71777 2.96131 5.57015 2.88269C5.42253 2.80407 5.29698 2.68969 5.205 2.55L4.8 1.95C4.70895 1.81173 4.58499 1.69824 4.43925 1.6197C4.29351 1.54116 4.13055 1.50003 3.965 1.5H2C1.73478 1.5 1.48043 1.60536 1.29289 1.79289C1.10536 1.98043 1 2.23478 1 2.5V9C1 9.26522 1.10536 9.51957 1.29289 9.70711C1.48043 9.89464 1.73478 10 2 10H10Z" stroke="#7B7B7B" stroke-width="1.2" stroke-linecap="round" stroke-linejoin="round"/>
</svg>
