<svg width="16" height="17" viewBox="0 0 16 17" fill="none" xmlns="http://www.w3.org/2000/svg">
<path d="M6.05996 6.50022C6.21669 6.05466 6.52606 5.67895 6.93326 5.43964C7.34046 5.20032 7.81922 5.11284 8.28474 5.19269C8.75026 5.27254 9.1725 5.51457 9.47668 5.8759C9.78085 6.23724 9.94733 6.69457 9.94662 7.16688C9.94662 8.50022 7.94662 9.16688 7.94662 9.16688M7.99998 11.8335H8.00665M14.6666 8.50016C14.6666 12.1821 11.6819 15.1668 7.99998 15.1668C4.31808 15.1668 1.33331 12.1821 1.33331 8.50016C1.33331 4.81826 4.31808 1.8335 7.99998 1.8335C11.6819 1.8335 14.6666 4.81826 14.6666 8.50016Z" stroke="#202020" stroke-width="1.3" stroke-linecap="round" stroke-linejoin="round"/>
</svg>
