<svg width="101" height="21" viewBox="0 0 101 21" fill="none" xmlns="http://www.w3.org/2000/svg">
<path d="M4.9004 0.5H0V17.374H4.9004V0.5Z" fill="#FE2E36"/>
<path d="M16.6441 17.3739L11.6137 8.93726H6.28309L11.3136 17.3739H16.6441Z" fill="#FE2E36"/>
<path d="M16.6441 0.5H11.3136L6.28309 8.93737H11.6137L16.6441 0.5Z" fill="url(#paint0_linear_3873_3268)"/>
<path d="M49.7227 5.63574H47.7275V17.374H49.7227V5.63574Z" fill="#FE2E36"/>
<path d="M42.7534 8.81958C40.3321 8.81958 38.7774 10.6097 38.7774 13.1921C38.7774 15.7744 40.3032 17.5206 42.8567 17.5206C44.5883 17.5206 45.6737 16.7132 46.3785 15.4372L44.8086 14.6891C44.3392 15.4964 43.7376 15.9362 42.9014 15.9362C41.7128 15.9362 40.8029 15.1584 40.7885 13.6911H46.6283V13.0895C46.6283 10.1108 44.8526 8.81958 42.7548 8.81958H42.7534ZM40.7871 12.3559C40.8456 11.2698 41.5944 10.375 42.7975 10.375C44.0006 10.375 44.7046 11.1968 44.7198 12.3559H40.7878H40.7871Z" fill="#FE2E36"/>
<path d="M53.1861 5.63574H51.1757V17.374H53.1861V5.63574Z" fill="#FE2E36"/>
<path d="M23.547 5.63574H21.5366V7.63101H23.547V5.63574Z" fill="#FE2E36"/>
<path d="M23.5469 8.93726H21.5365V17.3739H23.5469V8.93726Z" fill="#FE2E36"/>
<path d="M36.429 14.8062V10.4633H38.1015V8.93739H36.429V6.63379H34.4627V8.93739H33.274V10.4633H34.4627V15.1882C34.4331 16.6996 35.5047 17.4773 36.9721 17.4773C37.4125 17.4773 37.8379 17.4333 38.2336 17.3156V15.7312C37.8964 15.7752 37.6466 15.7897 37.3389 15.7897C36.7374 15.7897 36.429 15.4669 36.429 14.8069V14.8062Z" fill="#FE2E36"/>
<path d="M29.5182 8.81958C28.5526 8.81958 27.5368 9.22703 26.9359 9.86298V8.93658H24.9991V17.3733H27.0095V12.4288C27.0095 11.1961 27.7288 10.492 28.7853 10.492C29.8417 10.492 30.4288 11.1672 30.4288 12.2822V17.374H32.4392V11.9746C32.4392 10.0378 31.3242 8.81958 29.5196 8.81958H29.5182Z" fill="#FE2E36"/>
<path d="M88.4298 10.4631C89.2812 10.4631 89.7946 10.9325 90.1759 11.6662L91.8484 11.0062C91.3053 9.68541 90.1759 8.81958 88.4146 8.81958C85.8908 8.81958 84.3353 10.6242 84.3353 13.1776C84.3353 15.7311 85.8908 17.5206 88.4146 17.5206C90.1752 17.5206 91.3053 16.6699 91.8484 15.3491L90.1759 14.6595C89.7946 15.4076 89.2812 15.8921 88.4298 15.8921C87.1971 15.8921 86.4345 14.8501 86.4049 13.1776C86.4345 11.4756 87.1971 10.4631 88.4298 10.4631Z" fill="#FE2E36"/>
<path d="M80.3455 8.81958C79.3943 8.81958 78.3495 9.23529 77.7631 9.88363V8.93727H75.8704V17.374H77.8657V12.4295C77.8657 11.1968 78.5994 10.4927 79.6414 10.4927C80.6834 10.4927 81.285 11.1679 81.285 12.2829V17.3746H83.2802V11.9752C83.2802 10.0385 82.1652 8.82027 80.3455 8.82027V8.81958Z" fill="#FE2E36"/>
<path d="M56.6487 8.93726H54.6679V17.3739H56.6487V8.93726Z" fill="#FE2E36"/>
<path d="M100.315 13.0895C100.315 10.1108 98.5396 8.81958 96.4418 8.81958C94.0356 8.81958 92.4505 10.6097 92.4505 13.1921C92.4505 15.7744 94.006 17.5206 96.5588 17.5206C98.2753 17.5206 99.3758 16.7132 100.065 15.4372L98.51 14.6891C98.011 15.4964 97.439 15.9362 96.5877 15.9362C95.399 15.9362 94.5043 15.1584 94.4892 13.6911H100.315V13.0895H100.315ZM94.4899 12.3559C94.5339 11.2698 95.282 10.375 96.4851 10.375C97.6882 10.375 98.3923 11.1968 98.4074 12.3559H94.4899Z" fill="#FE2E36"/>
<path d="M56.6487 5.63574H54.6679V7.63101H56.6487V5.63574Z" fill="#FE2E36"/>
<path d="M63.7942 9.84233C63.256 9.19124 62.3847 8.81958 61.4025 8.81958C59.2159 8.81958 57.7637 10.5512 57.7637 13.0744C57.7637 15.5976 59.2166 17.2418 61.4025 17.2418C62.3592 17.2418 63.2581 16.8901 63.7798 16.3092V17.1978C63.7798 18.4745 62.7673 19.0905 61.6813 19.0905C60.6688 19.0905 59.9352 18.6059 59.3192 17.8874L57.9254 18.9439C58.7761 20.1029 60.1554 20.7196 61.5643 20.7196C63.8238 20.7196 65.7606 19.4284 65.7606 17.0808V8.93727H63.7942V9.84233ZM61.8279 15.6863C60.5071 15.6863 59.8175 14.6154 59.8175 13.0744C59.8175 11.5334 60.4775 10.4625 61.8279 10.4625C63.0895 10.4625 63.7942 11.4749 63.7942 13.0744C63.7942 14.6739 63.0901 15.6863 61.8279 15.6863Z" fill="#FE2E36"/>
<path d="M70.8516 8.81958C68.4455 8.81958 66.8604 10.6097 66.8604 13.1921C66.8604 15.7744 68.4159 17.5206 70.9838 17.5206C72.6714 17.5206 73.7864 16.7132 74.476 15.4372L72.9205 14.6891C72.4215 15.4964 71.8496 15.9362 71.0134 15.9362C69.8103 15.9362 68.9149 15.1584 68.9004 13.6911H74.7107V13.0895C74.7107 10.1108 72.9646 8.81958 70.8516 8.81958ZM68.9004 12.3559C68.9589 11.2698 69.6926 10.375 70.9108 10.375C72.0258 10.375 72.8035 11.1968 72.8331 12.3559H68.9011H68.9004Z" fill="#FE2E36"/>
<defs>
<linearGradient id="paint0_linear_3873_3268" x1="3.03382" y1="14.5763" x2="14.2008" y2="1.51793" gradientUnits="userSpaceOnUse">
<stop stop-color="white"/>
<stop offset="1" stop-color="#FE2E36"/>
</linearGradient>
</defs>
</svg>
