<svg width="21" height="21" viewBox="0 0 21 21" fill="none" xmlns="http://www.w3.org/2000/svg">
<path d="M12.9 4.90044L16.1 8.10052M17.8393 6.34999C18.2623 5.92712 18.4999 5.35354 18.5 4.75544C18.5001 4.15733 18.2626 3.5837 17.8397 3.16072C17.4168 2.73774 16.8433 2.50008 16.2452 2.5C15.6471 2.49992 15.0734 2.73745 14.6505 3.16032L3.97356 13.8398C3.78781 14.025 3.65045 14.253 3.57356 14.5038L2.51675 17.9855C2.49607 18.0546 2.49451 18.1281 2.51223 18.1981C2.52995 18.2681 2.56628 18.332 2.61739 18.3831C2.66849 18.4341 2.73245 18.4703 2.80248 18.4879C2.87251 18.5055 2.946 18.5039 3.01515 18.4831L6.49758 17.427C6.74812 17.3508 6.97613 17.2143 7.16159 17.0294L17.8393 6.34999Z" stroke="#fff" stroke-width="1.6" stroke-linecap="round" stroke-linejoin="round"/>
</svg>
