<svg width="16" height="17" viewBox="0 0 16 17" fill="none" xmlns="http://www.w3.org/2000/svg">
<path d="M11.2221 9.8L11.2221 2M5.97756 12.478L6.63313 9.8L2.81114 9.8C2.6076 9.8 2.40684 9.75301 2.22478 9.66275C2.04272 9.5725 1.88436 9.44145 1.76223 9.28C1.6401 9.11854 1.55756 8.93111 1.52115 8.73255C1.48474 8.53399 1.49545 8.32974 1.55245 8.136L3.07993 2.936C3.15936 2.66597 3.32499 2.42877 3.55194 2.26C3.7789 2.09123 4.05494 2 4.33863 2L13.1889 2C13.5366 2 13.8701 2.13696 14.116 2.38076C14.3619 2.62456 14.5 2.95522 14.5 3.3L14.5 8.5C14.5 8.84478 14.3619 9.17544 14.116 9.41924C13.8701 9.66304 13.5366 9.8 13.1889 9.8L11.3795 9.8C11.1355 9.80013 10.8965 9.86772 10.6892 9.99518C10.4819 10.1226 10.3145 10.3049 10.206 10.5215L7.94428 15C7.63512 14.9962 7.33083 14.9232 7.05414 14.7864C6.77744 14.6496 6.5355 14.4526 6.34638 14.2101C6.15726 13.9676 6.02586 13.6859 5.962 13.3859C5.89813 13.086 5.90345 12.7756 5.97756 12.478Z" stroke="#808080" stroke-width="1.2" stroke-linecap="round" stroke-linejoin="round"/>
</svg>
