<svg width="21" height="21" viewBox="0 0 21 21" fill="none" xmlns="http://www.w3.org/2000/svg">
<path d="M8.84821 13.2999C8.77679 13.0231 8.63249 12.7704 8.43032 12.5683C8.22815 12.3661 7.97549 12.2218 7.69864 12.1504L2.79077 10.8848C2.70704 10.861 2.63334 10.8106 2.58087 10.7411C2.52839 10.6717 2.5 10.587 2.5 10.5C2.5 10.413 2.52839 10.3283 2.58087 10.2588C2.63334 10.1894 2.70704 10.139 2.79077 10.1152L7.69864 8.84884C7.9754 8.77749 8.22798 8.6333 8.43015 8.43128C8.63231 8.22926 8.77667 7.97677 8.84821 7.70007L10.1138 2.79219C10.1373 2.70813 10.1877 2.63407 10.2572 2.58131C10.3268 2.52856 10.4117 2.5 10.499 2.5C10.5863 2.5 10.6712 2.52856 10.7407 2.58131C10.8103 2.63407 10.8606 2.70813 10.8842 2.79219L12.1489 7.70007C12.2203 7.97692 12.3647 8.22957 12.5668 8.43175C12.769 8.63392 13.0216 8.77822 13.2985 8.84964L18.2064 10.1144C18.2908 10.1377 18.3652 10.188 18.4182 10.2577C18.4713 10.3273 18.5 10.4124 18.5 10.5C18.5 10.5875 18.4713 10.6727 18.4182 10.7423C18.3652 10.812 18.2908 10.8623 18.2064 10.8856L13.2985 12.1504C13.0216 12.2218 12.769 12.3661 12.5668 12.5683C12.3647 12.7704 12.2203 13.0231 12.1489 13.2999L10.8834 18.2078C10.8598 18.2919 10.8095 18.3659 10.7399 18.4187C10.6704 18.4714 10.5855 18.5 10.4982 18.5C10.4109 18.5 10.326 18.4714 10.2564 18.4187C10.1869 18.3659 10.1365 18.2919 10.113 18.2078L8.84821 13.2999Z" fill="#fff"/>
</svg>
