<svg width="21" height="21" viewBox="0 0 21 21" fill="none" xmlns="http://www.w3.org/2000/svg">
<path d="M13.8503 10.5002L18.4169 13.1085C18.5452 13.1812 18.6518 13.2866 18.7261 13.414C18.8003 13.5414 18.8394 13.6861 18.8394 13.8335C18.8394 13.9809 18.8003 14.1257 18.7261 14.2531C18.6518 14.3805 18.5452 14.4859 18.4169 14.5585L11.3336 18.6169C11.0802 18.7631 10.7928 18.8402 10.5003 18.8402C10.2077 18.8402 9.92029 18.7631 9.66692 18.6169L2.58359 14.5585C2.45534 14.4859 2.34867 14.3805 2.27445 14.2531C2.20024 14.1257 2.16113 13.9809 2.16113 13.8335C2.16113 13.6861 2.20024 13.5414 2.27445 13.414C2.34867 13.2866 2.45534 13.1812 2.58359 13.1085L7.15026 10.5002M11.3336 11.9501C11.0802 12.0964 10.7928 12.1734 10.5003 12.1734C10.2077 12.1734 9.92029 12.0964 9.66692 11.9501L2.58359 7.89178C2.45534 7.8191 2.34867 7.7137 2.27445 7.58633C2.20024 7.45897 2.16113 7.31419 2.16113 7.16678C2.16113 7.01937 2.20024 6.87459 2.27445 6.74723C2.34867 6.61986 2.45534 6.51446 2.58359 6.44178L9.66692 2.38345C9.92029 2.23717 10.2077 2.16016 10.5003 2.16016C10.7928 2.16016 11.0802 2.23717 11.3336 2.38345L18.4169 6.44178C18.5452 6.51446 18.6518 6.61986 18.7261 6.74723C18.8003 6.87459 18.8394 7.01937 18.8394 7.16678C18.8394 7.31419 18.8003 7.45897 18.7261 7.58633C18.6518 7.7137 18.5452 7.8191 18.4169 7.89178L11.3336 11.9501Z" stroke="black" stroke-width="1.6" stroke-linecap="round" stroke-linejoin="round"/>
</svg>
