<svg width="32" height="32" viewBox="0 0 32 32" fill="none" xmlns="http://www.w3.org/2000/svg">
<path d="M15.0504 8.88379H11.2059C9.98761 8.88379 9 9.8714 9 11.0897V20.7956C9 22.0138 9.98761 23.0014 11.2059 23.0014H20.9118C22.13 23.0014 23.1176 22.0138 23.1176 20.7956V17.4552" stroke="#404040" stroke-width="1.2" stroke-linecap="round" stroke-linejoin="round"/>
<path d="M20.5515 8.64589C20.8961 8.30131 21.4548 8.30131 21.7994 8.64589L23.3761 10.2226C23.7207 10.5672 23.7207 11.1259 23.3761 11.4705L16.8044 18.0422C16.6627 18.1838 16.477 18.2731 16.2779 18.2952L14.5041 18.4923C13.9421 18.5547 13.4672 18.0799 13.5297 17.5179L13.7268 15.7441C13.7489 15.5449 13.8381 15.3593 13.9798 15.2176L20.5515 8.64589Z" stroke="#404040" stroke-width="1.2" stroke-linejoin="round"/>
</svg>
