<svg width="56" height="57" viewBox="0 0 56 57" fill="none" xmlns="http://www.w3.org/2000/svg">
<g clip-path="url(#clip0_3872_4524)">
<path d="M26.1006 11.0048C30.2658 11.0048 34.1832 12.6287 37.1282 15.5736C40.0731 18.5186 41.697 22.436 41.697 26.6012C41.697 30.7663 40.0731 34.6837 37.1282 37.6287C34.1832 40.5736 30.2658 42.1975 26.1006 42.1975C21.9355 42.1975 18.0181 40.5736 15.0731 37.6287C12.1282 34.6837 10.5043 30.7663 10.5043 26.6012C10.5043 22.436 12.1282 18.5186 15.0731 15.5736C18.0181 12.6287 21.9355 11.0048 26.1006 11.0048ZM26.1006 5.50024C20.697 5.50024 15.3025 7.56446 11.1832 11.6837C2.93551 19.9223 2.93551 33.2801 11.1832 41.5186C15.3025 45.6379 20.7062 47.7021 26.1006 47.7021C31.4951 47.7021 36.8988 45.6379 41.0181 41.5186C49.2566 33.2801 49.2566 19.9223 41.0181 11.6746C36.8988 7.56446 31.5043 5.50024 26.1006 5.50024Z" fill="#698EFF"/>
<path d="M38.5161 42.7268L42.4084 38.8345L50.1931 46.6191C51.27 47.696 51.27 49.4346 50.1931 50.5115C49.1162 51.5883 47.3777 51.5883 46.3008 50.5115L38.5161 42.7268Z" fill="#698EFF"/>
</g>
<defs>
<clipPath id="clip0_3872_4524">
<rect width="46" height="45.8165" fill="white" transform="translate(4.99994 5.50024)"/>
</clipPath>
</defs>
</svg>
