<svg width="16" height="17" viewBox="0 0 16 17" fill="none" xmlns="http://www.w3.org/2000/svg">
<path d="M7.99992 9.16667C8.36811 9.16667 8.66659 8.86819 8.66659 8.5C8.66659 8.13181 8.36811 7.83333 7.99992 7.83333C7.63173 7.83333 7.33325 8.13181 7.33325 8.5C7.33325 8.86819 7.63173 9.16667 7.99992 9.16667Z" stroke="#808080" stroke-width="1.2" stroke-linecap="round" stroke-linejoin="round"/>
<path d="M13.4666 13.9666C14.8266 12.6133 13.4799 9.05992 10.4666 6.03326C7.43992 3.01992 3.88659 1.67326 2.53326 3.03326C1.17326 4.38659 2.51992 7.93992 5.53326 10.9666C8.55992 13.9799 12.1133 15.3266 13.4666 13.9666Z" stroke="#808080" stroke-width="1.2" stroke-linecap="round" stroke-linejoin="round"/>
<path d="M10.4666 10.9666C13.4799 7.93992 14.8266 4.38659 13.4666 3.03326C12.1133 1.67326 8.55992 3.01992 5.53326 6.03326C2.51992 9.05992 1.17326 12.6133 2.53326 13.9666C3.88659 15.3266 7.43992 13.9799 10.4666 10.9666Z" stroke="#808080" stroke-width="1.2" stroke-linecap="round" stroke-linejoin="round"/>
</svg>
