<svg width="21" height="21" viewBox="0 0 21 21" fill="none" xmlns="http://www.w3.org/2000/svg">
<path d="M11.6249 2.5V7.3C11.6248 7.56839 11.6932 7.83249 11.824 8.068L16.3006 16.132C16.436 16.3757 16.5046 16.6499 16.4998 16.9276C16.4949 17.2054 16.4167 17.4771 16.2728 17.716C16.1289 17.9549 15.9244 18.1529 15.6792 18.2903C15.4341 18.4278 15.1568 18.5001 14.8747 18.5H5.12528C4.84318 18.5001 4.56592 18.4278 4.32078 18.2903C4.07565 18.1529 3.87108 17.9549 3.72721 17.716C3.58333 17.4771 3.50511 17.2054 3.50024 16.9276C3.49537 16.6499 3.56402 16.3757 3.69943 16.132L8.17604 8.068C8.30676 7.83249 8.37521 7.56839 8.37509 7.3V2.5M5.49325 12.9H14.5066M7.15644 2.5H12.8436" stroke="#202020" stroke-width="1.6" stroke-linecap="round" stroke-linejoin="round"/>
</svg>
