<svg width="24" height="24" viewBox="0 0 24 24" fill="none" xmlns="http://www.w3.org/2000/svg">
<path d="M11.9997 13.167C12.3679 13.167 12.6663 12.8685 12.6663 12.5003C12.6663 12.1321 12.3679 11.8337 11.9997 11.8337C11.6315 11.8337 11.333 12.1321 11.333 12.5003C11.333 12.8685 11.6315 13.167 11.9997 13.167Z" stroke="#808080" stroke-width="1.33333" stroke-linecap="round" stroke-linejoin="round"/>
<path d="M11.9997 8.50033C12.3679 8.50033 12.6663 8.20185 12.6663 7.83366C12.6663 7.46547 12.3679 7.16699 11.9997 7.16699C11.6315 7.16699 11.333 7.46547 11.333 7.83366C11.333 8.20185 11.6315 8.50033 11.9997 8.50033Z" stroke="#808080" stroke-width="1.33333" stroke-linecap="round" stroke-linejoin="round"/>
<path d="M11.9997 17.8337C12.3679 17.8337 12.6663 17.5352 12.6663 17.167C12.6663 16.7988 12.3679 16.5003 11.9997 16.5003C11.6315 16.5003 11.333 16.7988 11.333 17.167C11.333 17.5352 11.6315 17.8337 11.9997 17.8337Z" stroke="#808080" stroke-width="1.33333" stroke-linecap="round" stroke-linejoin="round"/>
</svg>
