<svg width="16" height="17" viewBox="0 0 16 17" fill="none" xmlns="http://www.w3.org/2000/svg">
<path d="M10.0001 3.83333L12.6667 6.5M14.1161 5.04126C14.4686 4.68888 14.6666 4.21091 14.6667 3.7125C14.6668 3.21409 14.4688 2.73607 14.1165 2.3836C13.7641 2.03112 13.2861 1.83307 12.7877 1.83301C12.2893 1.83295 11.8113 2.03088 11.4588 2.38326L2.56145 11.2826C2.40667 11.4369 2.29219 11.627 2.22812 11.8359L1.34745 14.7373C1.33022 14.7949 1.32892 14.8562 1.34369 14.9145C1.35845 14.9728 1.38873 15.0261 1.43132 15.0686C1.4739 15.1111 1.5272 15.1413 1.58556 15.156C1.64392 15.1707 1.70516 15.1693 1.76279 15.1519L4.66479 14.2719C4.87357 14.2084 5.06357 14.0947 5.21812 13.9406L14.1161 5.04126Z" stroke="#808080" stroke-width="1.2" stroke-linecap="round" stroke-linejoin="round"/>
</svg>
