<svg width="16" height="17" viewBox="0 0 16 17" fill="none" xmlns="http://www.w3.org/2000/svg">
<path d="M4.77786 7.2V15M10.0224 4.522L9.36687 7.2H13.1889C13.3924 7.2 13.5932 7.24699 13.7752 7.33724C13.9573 7.4275 14.1156 7.55855 14.2378 7.72C14.3599 7.88145 14.4424 8.06889 14.4789 8.26745C14.5153 8.46601 14.5045 8.67025 14.4476 8.864L12.9201 14.064C12.8406 14.334 12.675 14.5712 12.4481 14.74C12.2211 14.9088 11.9451 15 11.6614 15H2.81114C2.46341 15 2.12991 14.863 1.88403 14.6192C1.63814 14.3754 1.5 14.0448 1.5 13.7V8.5C1.5 8.15522 1.63814 7.82456 1.88403 7.58076C2.12991 7.33696 2.46341 7.2 2.81114 7.2H4.62052C4.86445 7.19987 5.10351 7.13228 5.31081 7.00482C5.51812 6.87736 5.68545 6.69509 5.794 6.4785L8.05572 2C8.36488 2.0038 8.66917 2.07681 8.94586 2.21359C9.22256 2.35037 9.4645 2.54737 9.65362 2.78988C9.84274 3.03239 9.97414 3.31414 10.038 3.61408C10.1019 3.91402 10.0965 4.22439 10.0224 4.522Z" stroke="#808080" stroke-width="1.2" stroke-linecap="round" stroke-linejoin="round"/>
</svg>
