<svg width="24" height="24" viewBox="0 0 24 24" fill="none" xmlns="http://www.w3.org/2000/svg">
<path d="M10.8571 4H6.5C5.11929 4 4 5.11929 4 6.5V17.5C4 18.8807 5.11929 20 6.5 20H17.5C18.8807 20 20 18.8807 20 17.5V13.7143" stroke="#404040" stroke-width="1.6" stroke-linecap="round" stroke-linejoin="round"/>
<path d="M17.0917 3.7303C17.4822 3.33978 18.1154 3.33978 18.5059 3.7303L20.2929 5.51726C20.6834 5.90779 20.6834 6.54095 20.2929 6.93147L12.845 14.3794C12.6844 14.54 12.474 14.6411 12.2483 14.6662L10.238 14.8896C9.60104 14.9603 9.06287 14.4222 9.13364 13.7852L9.35701 11.7749C9.38208 11.5492 9.48322 11.3388 9.64378 11.1782L17.0917 3.7303Z" stroke="#404040" stroke-width="1.6" stroke-linejoin="round"/>
</svg>
