<svg width="56" height="57" viewBox="0 0 56 57" fill="none" xmlns="http://www.w3.org/2000/svg">
<g clip-path="url(#clip0_3872_4534)">
<path d="M28 28.98C29.47 28.98 30.95 28.57 32.25 27.75L49.01 17.13C50.59 16.13 50.91 13.92 49.62 12.56C48.71 11.6 47.43 11.01 46.01 11.01H10C8.57003 11.01 7.29003 11.61 6.38003 12.56C5.10003 13.91 5.42003 16.12 6.99003 17.12L23.75 27.75C25.05 28.57 26.52 28.98 27.99 28.98H28Z" fill="#28CDC7"/>
<path d="M28 32.9799C25.92 32.9799 23.9 32.3899 22.15 31.2799L5 20.4099V40.9999C5 43.7599 7.24 45.9999 10 45.9999H45.99C48.75 45.9999 50.99 43.7599 50.99 40.9999V20.4099L33.84 31.2799C32.09 32.3899 30.06 32.9799 27.99 32.9799H28Z" fill="#28CDC7"/>
</g>
<defs>
<clipPath id="clip0_3872_4534">
<rect width="46" height="35" fill="white" transform="translate(5 11)"/>
</clipPath>
</defs>
</svg>
