<svg width="32" height="32" viewBox="0 0 32 32" fill="none" xmlns="http://www.w3.org/2000/svg">
<path d="M22.4004 8.80018V12.0001M24.0004 10.4001H20.8005M9.60074 19.9999V21.5999M10.4007 20.7999H8.80076M14.3502 18.7999C14.2788 18.5231 14.1345 18.2704 13.9323 18.0683C13.7301 17.8661 13.4775 17.7218 13.2006 17.6504L8.29273 16.3848C8.20899 16.361 8.1353 16.3106 8.08282 16.2411C8.03035 16.1717 8.00195 16.087 8.00195 16C8.00195 15.913 8.03035 15.8283 8.08282 15.7588C8.1353 15.6894 8.20899 15.639 8.29273 15.6152L13.2006 14.3488C13.4774 14.2775 13.7299 14.1333 13.9321 13.9313C14.1343 13.7293 14.2786 13.4768 14.3502 13.2001L15.6157 8.29219C15.6393 8.20813 15.6896 8.13407 15.7592 8.08131C15.8287 8.02856 15.9136 8 16.0009 8C16.0882 8 16.1731 8.02856 16.2427 8.08131C16.3122 8.13407 16.3626 8.20813 16.3861 8.29219L17.6509 13.2001C17.7223 13.4769 17.8666 13.7296 18.0688 13.9317C18.271 14.1339 18.5236 14.2782 18.8005 14.3496L23.7083 15.6144C23.7927 15.6377 23.8672 15.688 23.9202 15.7577C23.9732 15.8273 24.002 15.9125 24.002 16C24.002 16.0875 23.9732 16.1727 23.9202 16.2423C23.8672 16.312 23.7927 16.3623 23.7083 16.3856L18.8005 17.6504C18.5236 17.7218 18.271 17.8661 18.0688 18.0683C17.8666 18.2704 17.7223 18.5231 17.6509 18.7999L16.3853 23.7078C16.3618 23.7919 16.3114 23.8659 16.2419 23.9187C16.1723 23.9714 16.0874 24 16.0001 24C15.9128 24 15.8279 23.9714 15.7584 23.9187C15.6888 23.8659 15.6385 23.7919 15.6149 23.7078L14.3502 18.7999Z" stroke="#404040" stroke-width="1.2" stroke-linecap="round" stroke-linejoin="round"/>
</svg>
