<svg width="32" height="32" viewBox="0 0 32 32" fill="none" xmlns="http://www.w3.org/2000/svg">
<path d="M13.5625 23V10M13.5625 23H19.9025C20.8108 23 21.265 23 21.6123 22.8231C21.918 22.6673 22.1673 22.418 22.3231 22.1123C22.5 21.765 22.5 21.3108 22.5 20.4025V12.5975C22.5 11.6892 22.5 11.2344 22.3231 10.8871C22.1673 10.5813 21.918 10.3329 21.6123 10.1771C21.2647 10 20.8102 10 19.9002 10H13.5625M13.5625 23H12.0975C11.1892 23 10.7344 23 10.3871 22.8231C10.0813 22.6673 9.83291 22.418 9.67711 22.1123C9.5 21.7647 9.5 21.3102 9.5 20.4002V12.6002C9.5 11.6901 9.5 11.2347 9.67711 10.8871C9.83291 10.5813 10.0813 10.3329 10.3871 10.1771C10.7347 10 11.1901 10 12.1002 10H13.5625" stroke="#404040" stroke-width="1.2" stroke-linecap="round" stroke-linejoin="round"/>
</svg>
