<svg width="56" height="57" viewBox="0 0 56 57" fill="none" xmlns="http://www.w3.org/2000/svg">
<path d="M46.334 48.8652C46.334 49.4752 46.0899 50.0609 45.6562 50.4922C45.2227 50.9234 44.6346 51.1659 44.0215 51.166H15.1143C13.5811 51.1659 12.1105 50.5597 11.0264 49.4814C10.7503 49.2068 10.5052 48.9071 10.293 48.5879C10.4174 48.3226 10.4892 48.0279 10.4893 47.7158C10.4895 46.7402 10.8796 45.8042 11.5732 45.1143C12.2669 44.4244 13.2076 44.0364 14.1885 44.0361H45.4072C45.7405 44.0361 46.0547 43.9559 46.334 43.8174V48.8652ZM44.0215 5.16602C44.6346 5.16613 45.2227 5.40861 45.6562 5.83984C46.0898 6.27112 46.3339 6.85593 46.334 7.46582V40.1143C46.0548 39.9759 45.7403 39.8965 45.4072 39.8965H14.1885C12.4179 39.8967 10.7109 40.493 9.33301 41.5703V10.916C9.33301 9.39118 9.94236 7.92888 11.0264 6.85059C12.1105 5.77233 13.5811 5.16609 15.1143 5.16602H44.0215ZM18.583 23.7949C17.4341 23.795 16.5027 24.7217 16.502 25.8643C16.502 27.0074 17.4336 27.9345 18.583 27.9346H37.084L37.2959 27.9238C38.3454 27.8179 39.165 26.9361 39.165 25.8643C39.1643 24.793 38.3451 23.9115 37.2959 23.8057L37.084 23.7949H18.583ZM18.583 14.5957C17.4336 14.5958 16.502 15.5228 16.502 16.666C16.5021 17.809 17.4337 18.7353 18.583 18.7354H32.458C33.6073 18.7354 34.5389 17.8091 34.5391 16.666C34.5391 15.5228 33.6075 14.5957 32.458 14.5957H18.583Z" fill="#AA78FF"/>
</svg>
