<svg width="56" height="57" viewBox="0 0 56 57" fill="none" xmlns="http://www.w3.org/2000/svg">
<path d="M41.9274 23.3438L18.819 46.4561C18.3091 46.9644 17.6817 47.3402 16.9929 47.5498L7.41669 50.4541C7.2266 50.5112 7.02423 50.5151 6.83173 50.4668C6.63926 50.4184 6.46342 50.3189 6.32294 50.1787C6.18242 50.0384 6.08261 49.8624 6.03387 49.6699C5.98521 49.4775 5.98875 49.2752 6.04559 49.085L8.95184 39.5107C9.1633 38.8211 9.54164 38.1939 10.0524 37.6846L33.1569 14.5732L41.9274 23.3438ZM43.7995 6.5C45.4441 6.50034 47.0215 7.15431 48.1843 8.31738C49.3469 9.48046 49.9998 11.0576 49.9997 12.7021C49.9995 14.3469 49.3464 15.925 48.1833 17.0879L44.8434 20.4268L36.0729 11.6562L39.4138 8.31543C40.5769 7.15274 42.1549 6.49979 43.7995 6.5Z" fill="#FF466A"/>
</svg>
