<svg width="32" height="32" viewBox="0 0 32 32" fill="none" xmlns="http://www.w3.org/2000/svg">
<path d="M10 21.625V10.375C10 9.87772 10.1975 9.40081 10.5492 9.04917C10.9008 8.69754 11.3777 8.5 11.875 8.5H21.25C21.4489 8.5 21.6397 8.57902 21.7803 8.71967C21.921 8.86032 22 9.05109 22 9.25V22.75C22 22.9489 21.921 23.1397 21.7803 23.2803C21.6397 23.421 21.4489 23.5 21.25 23.5H11.875C11.3777 23.5 10.9008 23.3025 10.5492 22.9508C10.1975 22.5992 10 22.1223 10 21.625ZM10 21.625C10 21.1277 10.1975 20.6508 10.5492 20.2992C10.9008 19.9475 11.3777 19.75 11.875 19.75H22" stroke="#404040" stroke-width="1.2" stroke-linecap="round" stroke-linejoin="round"/>
<path d="M13 15.25H19" stroke="#404040" stroke-width="1.2" stroke-linecap="round" stroke-linejoin="round"/>
<path d="M13 12.25H17.5" stroke="#404040" stroke-width="1.2" stroke-linecap="round" stroke-linejoin="round"/>
</svg>
