<svg width="207" height="155" viewBox="0 0 207 155" fill="none" xmlns="http://www.w3.org/2000/svg">
<circle opacity="0.22" cx="103.98" cy="77.5" r="77.5" fill="#D6D6D6"/>
<path d="M176.017 42.0252C173.7 42.0252 171.94 42.5348 170.735 43.5542C169.623 44.5735 169.067 46.0562 169.067 48.0022V58.4272C170.457 57.5005 172.449 56.7128 175.044 56.0642C177.731 55.4155 180.233 55.0912 182.55 55.0912C190.056 55.0912 195.94 57.0372 200.203 60.9292C204.558 64.8212 206.736 70.5202 206.736 78.0262V102.768C206.736 110.923 204.095 117.41 198.813 122.228C193.624 127.047 186.025 129.456 176.017 129.456C165.824 129.456 158.132 127.047 152.943 122.228C147.846 117.41 145.298 110.923 145.298 102.768V46.6122C145.298 37.8088 147.846 31.1368 152.943 26.5962C158.132 22.0555 165.824 19.7852 176.017 19.7852C185.747 19.7852 193.068 22.2872 197.979 27.2912C202.89 32.2952 205.346 39.1988 205.346 48.0022H181.716C181.716 46.0562 181.253 44.5735 180.326 43.5542C179.399 42.5348 177.963 42.0252 176.017 42.0252ZM182.828 101.517V83.1692C182.828 81.2232 182.365 79.7868 181.438 78.8602C180.604 77.8408 179.214 77.3312 177.268 77.3312C174.581 77.3312 172.542 77.9798 171.152 79.2772C169.762 80.5745 169.067 82.3352 169.067 84.5592V101.517C169.067 103.463 169.53 104.946 170.457 105.965C171.476 106.892 173.33 107.355 176.017 107.355C178.519 107.355 180.28 106.892 181.299 105.965C182.318 104.946 182.828 103.463 182.828 101.517Z" fill="#D6D6D6"/>
<path d="M113.599 101.517V48.0022C113.599 46.0562 112.951 44.5735 111.653 43.5542C110.356 42.5348 108.734 42.0252 106.788 42.0252C104.75 42.0252 103.082 42.5348 101.784 43.5542C100.487 44.5735 99.8383 46.0562 99.8383 48.0022V101.517C99.8383 103.463 100.487 104.946 101.784 105.965C103.082 106.892 104.75 107.355 106.788 107.355C108.734 107.355 110.356 106.892 111.653 105.965C112.951 104.946 113.599 103.463 113.599 101.517ZM137.507 46.6122V102.768C137.507 110.923 134.866 117.41 129.584 122.228C124.395 127.047 116.796 129.456 106.788 129.456C96.595 129.456 88.9037 127.047 83.7143 122.228C78.6177 117.41 76.0693 110.923 76.0693 102.768V46.6122C76.0693 38.5502 78.6177 32.0635 83.7143 27.1522C88.9037 22.2408 96.595 19.7852 106.788 19.7852C116.796 19.7852 124.395 22.2408 129.584 27.1522C134.866 32.0635 137.507 38.5502 137.507 46.6122Z" fill="#D6D6D6"/>
<path d="M38.2107 61.6242H61.9797V87.7562H70.8757V109.996H61.9797V128.205H38.2107V109.996H0.263672V90.3972L26.3957 19.7852H51.4157L27.9247 87.7562H38.2107V61.6242Z" fill="#D6D6D6"/>
</svg>
