<svg width="211" height="155" viewBox="0 0 211 155" fill="none" xmlns="http://www.w3.org/2000/svg">
<circle opacity="0.22" cx="105.981" cy="77.5" r="77.5" fill="#D6D6D6"/>
<path d="M178.15 60.9513H201.537V86.6631H210.29V108.545H201.537V126.462H178.15V108.545H140.813V89.2616L166.525 19.7852H191.143L168.03 86.6631H178.15V60.9513Z" fill="#D6D6D6"/>
<path d="M112.223 100.203V47.5484C112.223 45.6337 111.585 44.1749 110.308 43.1719C109.032 42.169 107.436 41.6675 105.521 41.6675C103.516 41.6675 101.874 42.169 100.598 43.1719C99.3214 44.1749 98.6832 45.6337 98.6832 47.5484V100.203C98.6832 102.118 99.3214 103.576 100.598 104.579C101.874 105.491 103.516 105.947 105.521 105.947C107.436 105.947 109.032 105.491 110.308 104.579C111.585 103.576 112.223 102.118 112.223 100.203ZM135.746 46.1807V101.434C135.746 109.457 133.148 115.84 127.951 120.581C122.845 125.322 115.368 127.693 105.521 127.693C95.492 127.693 87.9243 125.322 82.8184 120.581C77.8037 115.84 75.2964 109.457 75.2964 101.434V46.1807C75.2964 38.2484 77.8037 31.866 82.8184 27.0337C87.9243 22.2013 95.492 19.7852 105.521 19.7852C115.368 19.7852 122.845 22.2013 127.951 27.0337C133.148 31.866 135.746 38.2484 135.746 46.1807Z" fill="#D6D6D6"/>
<path d="M38.0467 60.9513H61.4335V86.6631H70.1864V108.545H61.4335V126.462H38.0467V108.545H0.709961V89.2616L26.4217 19.7852H51.0394L27.9261 86.6631H38.0467V60.9513Z" fill="#D6D6D6"/>
</svg>
