<svg width="193" height="155" viewBox="0 0 193 155" fill="none" xmlns="http://www.w3.org/2000/svg">
<circle opacity="0.22" cx="96.5391" cy="77.5" r="77.5" fill="#D6D6D6"/>
<path d="M169.89 103.874V52.2303C169.89 50.3524 169.264 48.9215 168.012 47.9378C166.76 46.9542 165.195 46.4623 163.317 46.4623C161.349 46.4623 159.74 46.9542 158.488 47.9378C157.236 48.9215 156.61 50.3524 156.61 52.2303V103.874C156.61 105.752 157.236 107.183 158.488 108.166C159.74 109.061 161.349 109.508 163.317 109.508C165.195 109.508 166.76 109.061 168.012 108.166C169.264 107.183 169.89 105.752 169.89 103.874ZM192.961 50.8889V105.081C192.961 112.951 190.413 119.211 185.316 123.861C180.308 128.511 172.975 130.836 163.317 130.836C153.48 130.836 146.057 128.511 141.05 123.861C136.131 119.211 133.672 112.951 133.672 105.081V50.8889C133.672 43.1088 136.131 36.849 141.05 32.1094C146.057 27.3698 153.48 25 163.317 25C172.975 25 180.308 27.3698 185.316 32.1094C190.413 36.849 192.961 43.1088 192.961 50.8889Z" fill="#D6D6D6"/>
<path d="M103.081 103.874V52.2303C103.081 50.3524 102.455 48.9215 101.203 47.9378C99.951 46.9542 98.386 46.4623 96.5081 46.4623C94.5407 46.4623 92.931 46.9542 91.6791 47.9378C90.4271 48.9215 89.8011 50.3524 89.8011 52.2303V103.874C89.8011 105.752 90.4271 107.183 91.6791 108.166C92.931 109.061 94.5407 109.508 96.5081 109.508C98.386 109.508 99.951 109.061 101.203 108.166C102.455 107.183 103.081 105.752 103.081 103.874ZM126.153 50.8889V105.081C126.153 112.951 123.604 119.211 118.507 123.861C113.499 128.511 106.166 130.836 96.5081 130.836C86.6712 130.836 79.2488 128.511 74.2409 123.861C69.3225 119.211 66.8633 112.951 66.8633 105.081V50.8889C66.8633 43.1088 69.3225 36.849 74.2409 32.1094C79.2488 27.3698 86.6712 25 96.5081 25C106.166 25 113.499 27.3698 118.507 32.1094C123.604 36.849 126.153 43.1088 126.153 50.8889Z" fill="#D6D6D6"/>
<path d="M24.8549 81.7409H3.25841V26.3413H57.4507V47.8036H26.1962V59.742C27.5376 58.7583 29.1026 57.9982 30.8911 57.4617C32.7691 56.8357 34.7365 56.5227 36.7933 56.5227C44.2156 56.5227 49.8048 58.5348 53.5607 62.5589C57.406 66.4937 59.3287 71.9934 59.3287 79.0581V103.203C59.3287 111.43 56.9142 118.093 52.0852 123.19C47.2561 128.287 40.0126 130.836 30.3546 130.836C20.5177 130.836 13.0059 128.198 7.81915 122.922C2.63242 117.646 0.0390625 109.821 0.0390625 99.4473H22.9769C22.9769 103.203 23.5582 105.841 24.7207 107.362C25.8833 108.792 27.7612 109.508 30.3546 109.508C32.5008 109.508 34.021 109.016 34.9153 108.032C35.899 107.049 36.3908 105.439 36.3908 103.203V82.9481C36.3908 81.1596 35.9884 79.9077 35.1836 79.1922C34.3788 78.3874 33.2609 77.985 31.8301 77.985C30.3993 77.985 29.0579 78.3874 27.8059 79.1922C26.6434 79.9077 25.6597 80.7572 24.8549 81.7409Z" fill="#D6D6D6"/>
</svg>
