<svg width="140" height="40" viewBox="0 0 140 40" fill="none" xmlns="http://www.w3.org/2000/svg">
<rect width="140" height="40" fill="#F7F7F7"/>
<path d="M42.7059 27H52.5882C52.9627 27 53.3217 26.8525 53.5865 26.5899C53.8513 26.3274 54 25.9713 54 25.6V16.5L50.4706 13H44.1176C43.7432 13 43.3841 13.1475 43.1194 13.4101C42.8546 13.6726 42.7059 14.0287 42.7059 14.4V17.2M49.7647 13V15.8C49.7647 16.1713 49.9134 16.5274 50.1782 16.7899C50.443 17.0525 50.802 17.2 51.1765 17.2H54M45.5294 20.35L42 23.85M42 20.35L45.5294 23.85" stroke="#A2A2A2" stroke-width="1.6" stroke-linecap="round" stroke-linejoin="round"/>
<path d="M71.332 16.9785V17.7402H70.4336V21.8174C70.8682 21.7832 71.293 21.7441 71.7031 21.6953L71.752 22.3691C69.9209 22.6768 67.8555 22.7061 66.3223 22.7109L66.2148 21.9395C66.5615 21.9395 66.9375 21.9346 67.3281 21.9297V17.7402H66.4297V16.9785H71.332ZM68.2266 21.915C68.6562 21.9053 69.0957 21.8906 69.5352 21.8711V17.7402H68.2266V21.915ZM72.2109 24.8301V16.0801H73.1387V19.5273H74.5449V20.2891H73.1387V24.8301H72.2109ZM77.4453 16.373C78.7637 16.3828 79.7354 17.1885 79.7402 18.3359C79.7354 19.4883 78.7637 20.2891 77.4453 20.2891C76.1123 20.2891 75.1455 19.4883 75.1406 18.3359C75.1455 17.1885 76.1123 16.3828 77.4453 16.373ZM76.0488 18.3359C76.0439 19.0586 76.6396 19.5371 77.4453 19.5371C78.2461 19.5371 78.8418 19.0586 78.8418 18.3359C78.8418 17.623 78.2461 17.1445 77.4453 17.1543C76.6396 17.1445 76.0439 17.623 76.0488 18.3359ZM76.4688 21.6758V20.9336H82.2207V23.1406H77.3965V23.9805H82.5137V24.7227H76.498V22.4473H81.3027V21.6758H76.4688ZM81.293 20.5332V16.0801H82.2207V20.5332H81.293ZM87.9141 21.207V22.2227H89.2812V21.207H90.1406V24.7227H87.0449V21.207H87.9141ZM86.1758 18.4727C86.1709 17.2764 87.1328 16.4512 88.4707 16.4512C89.623 16.4512 90.5166 17.1006 90.707 18.082H92.416V16.0801H93.3438V20.7188H92.416V18.8438H90.7119C90.5312 19.8447 89.6328 20.5088 88.4707 20.5039C87.1328 20.5088 86.1709 19.6787 86.1758 18.4727ZM87.0645 18.4727C87.0596 19.2295 87.6455 19.7471 88.4707 19.752C89.2812 19.7471 89.8574 19.2295 89.8574 18.4727C89.8574 17.7256 89.2812 17.2178 88.4707 17.2227C87.6455 17.2178 87.0596 17.7256 87.0645 18.4727ZM87.9141 24H89.2812V22.9258H87.9141V24ZM90.1895 24.0879C91.2441 23.6533 91.7617 22.7354 91.7617 21.8613V21.1484H92.6797V21.8613C92.6748 22.7793 93.1924 23.707 94.2715 24.0879L93.793 24.791C93.002 24.4883 92.4893 23.917 92.2109 23.2236C91.9229 23.8975 91.4102 24.4785 90.6582 24.791L90.1895 24.0879ZM98.6758 16.2656C100.595 16.2607 101.796 16.8857 101.801 17.9453C101.796 18.9854 100.595 19.6006 98.6758 19.5957C96.7617 19.6006 95.5459 18.9854 95.5508 17.9453C95.5459 16.8857 96.7617 16.2607 98.6758 16.2656ZM94.6914 21.0215V20.2695H102.67V21.0215H94.6914ZM95.6484 24.7227V21.8027H101.693V24.7227H95.6484ZM96.5078 17.9453C96.5029 18.5264 97.3281 18.8682 98.6758 18.873C100.014 18.8682 100.849 18.5264 100.844 17.9453C100.849 17.3398 100.014 16.9932 98.6758 16.998C97.3281 16.9932 96.5029 17.3398 96.5078 17.9453ZM96.5664 23.9707H100.795V22.5449H96.5664V23.9707Z" fill="#A2A2A2"/>
</svg>
