<svg width="24" height="24" viewBox="0 0 24 24" fill="none" xmlns="http://www.w3.org/2000/svg">
<path d="M9.00016 12.3333L10.6668 13.9999L14.0002 10.6666M18.1668 13.1666C18.1668 17.3332 15.2502 19.4166 11.7835 20.6249C11.602 20.6864 11.4048 20.6835 11.2252 20.6166C7.75016 19.4166 4.8335 17.3332 4.8335 13.1666V7.33322C4.8335 7.11221 4.92129 6.90024 5.07757 6.74396C5.23385 6.58768 5.44582 6.49989 5.66683 6.49989C7.3335 6.49989 9.41683 5.49989 10.8668 4.23322C11.0434 4.08239 11.268 3.99951 11.5002 3.99951C11.7324 3.99951 11.957 4.08239 12.1335 4.23322C13.5918 5.50822 15.6668 6.49989 17.3335 6.49989C17.5545 6.49989 17.7665 6.58768 17.9228 6.74396C18.079 6.90024 18.1668 7.11221 18.1668 7.33322V13.1666Z" stroke="#26262A" stroke-width="1.6" stroke-linecap="round" stroke-linejoin="round"/>
</svg>
