<svg width="24" height="24" viewBox="0 0 24 24" fill="none" xmlns="http://www.w3.org/2000/svg">
<path d="M7.39712 10.2502L4.48045 11.5835C4.33729 11.6508 4.21624 11.7575 4.13144 11.891C4.04665 12.0246 4.00163 12.1795 4.00163 12.3377C4.00163 12.4959 4.04665 12.6508 4.13144 12.7844C4.21624 12.9179 4.33729 13.0246 4.48045 13.0919L11.6471 16.3502C11.8631 16.448 12.0975 16.4986 12.3346 16.4986C12.5717 16.4986 12.8061 16.448 13.0221 16.3502L20.1721 13.1002C20.32 13.035 20.4457 12.9282 20.534 12.7928C20.6222 12.6574 20.6692 12.4993 20.6692 12.3377C20.6692 12.1761 20.6222 12.018 20.534 11.8826C20.4457 11.7472 20.32 11.6404 20.1721 11.5752L17.2555 10.2502M7.39712 14.4169L4.48045 15.7502C4.33729 15.8175 4.21624 15.9242 4.13144 16.0577C4.04665 16.1913 4.00163 16.3462 4.00163 16.5044C4.00163 16.6626 4.04665 16.8175 4.13144 16.951C4.21624 17.0846 4.33729 17.1912 4.48045 17.2585L11.6471 20.5169C11.8631 20.6147 12.0975 20.6653 12.3346 20.6653C12.5717 20.6653 12.8061 20.6147 13.0221 20.5169L20.1721 17.2669C20.32 17.2017 20.4457 17.0949 20.534 16.9595C20.6222 16.8241 20.6692 16.666 20.6692 16.5044C20.6692 16.3428 20.6222 16.1846 20.534 16.0493C20.4457 15.9139 20.32 15.8071 20.1721 15.7419L17.2555 14.4169M13.0221 4.1503C12.805 4.05125 12.5691 4 12.3305 4C12.0918 4 11.8559 4.05125 11.6388 4.1503L4.49712 7.4003C4.34925 7.4655 4.22352 7.5723 4.13526 7.70768C4.04699 7.84306 4 8.00118 4 8.1628C4 8.32441 4.04699 8.48254 4.13526 8.61792C4.22352 8.7533 4.34925 8.86009 4.49712 8.9253L11.6471 12.1836C11.8643 12.2827 12.1001 12.3339 12.3388 12.3339C12.5774 12.3339 12.8133 12.2827 13.0305 12.1836L20.1805 8.93363C20.3283 8.86843 20.4541 8.76163 20.5423 8.62625C20.6306 8.49087 20.6776 8.33274 20.6776 8.17113C20.6776 8.00952 20.6306 7.85139 20.5423 7.71601C20.4541 7.58063 20.3283 7.47383 20.1805 7.40863L13.0221 4.1503Z" stroke="#226AFC" stroke-width="1.6" stroke-linecap="round" stroke-linejoin="round"/>
</svg>
