<svg width="24" height="24" viewBox="0 0 24 24" fill="none" xmlns="http://www.w3.org/2000/svg">
<path d="M4 4V19H19M8.16667 9.83333H9.83333C10.2936 9.83333 10.6667 10.2064 10.6667 10.6667V14.8333C10.6667 15.2936 10.2936 15.6667 9.83333 15.6667H8.16667C7.70643 15.6667 7.33333 15.2936 7.33333 14.8333V10.6667C7.33333 10.2064 7.70643 9.83333 8.16667 9.83333ZM14.8333 5.66667H16.5C16.9602 5.66667 17.3333 6.03976 17.3333 6.5V14.8333C17.3333 15.2936 16.9602 15.6667 16.5 15.6667H14.8333C14.3731 15.6667 14 15.2936 14 14.8333V6.5C14 6.03976 14.3731 5.66667 14.8333 5.66667Z" stroke="#26262A" stroke-width="1.6" stroke-linecap="round" stroke-linejoin="round"/>
</svg>
