<svg width="24" height="24" viewBox="0 0 24 24" fill="none" xmlns="http://www.w3.org/2000/svg">
<path d="M10.4889 20.0954C10.6377 20.3694 10.8564 20.5978 11.1223 20.7569C11.3881 20.9161 11.6912 21 12 21C12.3089 21 12.612 20.9161 12.8778 20.7569C13.1436 20.5978 13.3624 20.3694 13.5112 20.0954M6.66667 8.39856C6.66667 6.96677 7.22857 5.59363 8.22876 4.5812C9.22896 3.56878 10.5855 3 12 3C13.4145 3 14.771 3.56878 15.7712 4.5812C16.7714 5.59363 17.3333 6.96677 17.3333 8.39856C17.3333 14.6969 20 16.4964 20 16.4964H4C4 16.4964 6.66667 14.6969 6.66667 8.39856Z" stroke="#26262A" stroke-width="1.6" stroke-linecap="round" stroke-linejoin="round"/>
</svg>
