<svg width="16" height="16" viewBox="0 0 16 16" fill="none" xmlns="http://www.w3.org/2000/svg">
<path d="M3 8.25C3 9.28835 3.30791 10.3034 3.88478 11.1667C4.46166 12.0301 5.2816 12.703 6.24091 13.1004C7.20022 13.4977 8.25582 13.6017 9.27422 13.3991C10.2926 13.1966 11.2281 12.6965 11.9623 11.9623C12.6965 11.2281 13.1966 10.2926 13.3991 9.27422C13.6017 8.25582 13.4977 7.20022 13.1004 6.24091C12.703 5.2816 12.0301 4.46166 11.1667 3.88478C10.3034 3.30791 9.28835 3 8.25 3C6.78231 3.00552 5.37357 3.57821 4.31833 4.59833L3 5.91667M3 5.91667V3M3 5.91667H5.91667" stroke="#226AFC" stroke-width="1.2" stroke-linecap="round" stroke-linejoin="round"/>
</svg>
