<svg width="24" height="24" viewBox="0 0 24 24" fill="none" xmlns="http://www.w3.org/2000/svg">
<path d="M11.9 12.875C12.3971 12.875 12.8 12.4832 12.8 12C12.8 11.5168 12.3971 11.125 11.9 11.125C11.4029 11.125 11 11.5168 11 12C11 12.4832 11.4029 12.875 11.9 12.875Z" fill="#26262A"/>
<path d="M11.9 6.75C12.3971 6.75 12.8 6.35825 12.8 5.875C12.8 5.39175 12.3971 5 11.9 5C11.4029 5 11 5.39175 11 5.875C11 6.35825 11.4029 6.75 11.9 6.75Z" fill="#26262A"/>
<path d="M11.9 19C12.3971 19 12.8 18.6082 12.8 18.125C12.8 17.6418 12.3971 17.25 11.9 17.25C11.4029 17.25 11 17.6418 11 18.125C11 18.6082 11.4029 19 11.9 19Z" fill="#26262A"/>
<path d="M11.9 12.875C12.3971 12.875 12.8 12.4832 12.8 12C12.8 11.5168 12.3971 11.125 11.9 11.125C11.4029 11.125 11 11.5168 11 12C11 12.4832 11.4029 12.875 11.9 12.875Z" stroke="#26262A" stroke-linecap="round" stroke-linejoin="round"/>
<path d="M11.9 6.75C12.3971 6.75 12.8 6.35825 12.8 5.875C12.8 5.39175 12.3971 5 11.9 5C11.4029 5 11 5.39175 11 5.875C11 6.35825 11.4029 6.75 11.9 6.75Z" stroke="#26262A" stroke-linecap="round" stroke-linejoin="round"/>
<path d="M11.9 19C12.3971 19 12.8 18.6082 12.8 18.125C12.8 17.6418 12.3971 17.25 11.9 17.25C11.4029 17.25 11 17.6418 11 18.125C11 18.6082 11.4029 19 11.9 19Z" stroke="#26262A" stroke-linecap="round" stroke-linejoin="round"/>
</svg>
