<svg width="140" height="40" viewBox="0 0 140 40" fill="none" xmlns="http://www.w3.org/2000/svg">
<rect width="140" height="40" fill="#F7F7F7"/>
<path d="M50.2278 20.886V26.4187C50.2278 26.838 50.0612 27.2401 49.7647 27.5365C49.4683 27.833 49.0662 27.9995 48.6469 27.9995H37.5809C37.1616 27.9995 36.7595 27.833 36.463 27.5365C36.1666 27.2401 36 26.838 36 26.4187V15.3532C36 14.934 36.1666 14.5319 36.463 14.2355C36.7595 13.939 37.1616 13.7725 37.5809 13.7725H43.1139M50.2278 23.2571L47.7885 20.818C47.492 20.5216 47.09 20.3551 46.6708 20.3551C46.2516 20.3551 45.8496 20.5216 45.5532 20.818L38.3713 27.9995M42.3235 18.5148C42.3235 19.3879 41.6157 20.0956 40.7426 20.0956C39.8695 20.0956 39.1617 19.3879 39.1617 18.5148C39.1617 17.6418 39.8695 16.934 40.7426 16.934C41.6157 16.934 42.3235 17.6418 42.3235 18.5148Z" stroke="#A2A2A2" stroke-width="1.6" stroke-linecap="round" stroke-linejoin="round"/>
<path d="M46.97 13.6767L50.3235 17.03M50.3235 13.6767L46.97 17.03" stroke="#A2A2A2" stroke-width="1.6" stroke-linecap="round" stroke-linejoin="round"/>
<path d="M69.5684 16.0801V24.8496H68.6406V16.0801H69.5684ZM62.625 19.8008C62.625 17.9307 63.5674 16.7393 64.8906 16.7344C66.1895 16.7393 67.1465 17.9307 67.1465 19.8008C67.1465 21.6904 66.1895 22.8818 64.8906 22.877C63.5674 22.8818 62.625 21.6904 62.625 19.8008ZM63.5234 19.8008C63.5186 21.1924 64.0752 22.0469 64.8906 22.0469C65.6914 22.0469 66.248 21.1924 66.248 19.8008C66.248 18.4287 65.6914 17.5693 64.8906 17.5645C64.0752 17.5693 63.5186 18.4287 63.5234 19.8008ZM75.5547 16.9199V22.6719H71.4531V16.9199H75.5547ZM72.3711 21.9199H74.6562V17.6523H72.3711V21.9199ZM77.2832 24.8496V16.0801H78.2109V24.8496H77.2832ZM82.8301 18.6582C82.8252 20.123 83.7871 21.6367 85.1348 22.2129L84.627 22.9355C83.5967 22.4814 82.7764 21.5146 82.3711 20.3477C81.9658 21.5977 81.1455 22.6621 80.125 23.1602L79.5879 22.4277C80.9062 21.8076 81.8828 20.167 81.8926 18.6582V17.7305H79.8906V16.959H84.8223V17.7305H82.8301V18.6582ZM85.9258 24.8301V16.0801H86.8535V24.8301H85.9258ZM92.5566 21.207V22.2227H93.9238V21.207H94.7832V24.7227H91.6875V21.207H92.5566ZM90.8184 18.4727C90.8135 17.2764 91.7754 16.4512 93.1133 16.4512C94.2656 16.4512 95.1592 17.1006 95.3496 18.082H97.0586V16.0801H97.9863V20.7188H97.0586V18.8438H95.3545C95.1738 19.8447 94.2754 20.5088 93.1133 20.5039C91.7754 20.5088 90.8135 19.6787 90.8184 18.4727ZM91.707 18.4727C91.7021 19.2295 92.2881 19.7471 93.1133 19.752C93.9238 19.7471 94.5 19.2295 94.5 18.4727C94.5 17.7256 93.9238 17.2178 93.1133 17.2227C92.2881 17.2178 91.7021 17.7256 91.707 18.4727ZM92.5566 24H93.9238V22.9258H92.5566V24ZM94.832 24.0879C95.8867 23.6533 96.4043 22.7354 96.4043 21.8613V21.1484H97.3223V21.8613C97.3174 22.7793 97.835 23.707 98.9141 24.0879L98.4355 24.791C97.6445 24.4883 97.1318 23.917 96.8535 23.2236C96.5654 23.8975 96.0527 24.4785 95.3008 24.791L94.832 24.0879ZM103.318 16.2656C105.237 16.2607 106.438 16.8857 106.443 17.9453C106.438 18.9854 105.237 19.6006 103.318 19.5957C101.404 19.6006 100.188 18.9854 100.193 17.9453C100.188 16.8857 101.404 16.2607 103.318 16.2656ZM99.334 21.0215V20.2695H107.312V21.0215H99.334ZM100.291 24.7227V21.8027H106.336V24.7227H100.291ZM101.15 17.9453C101.146 18.5264 101.971 18.8682 103.318 18.873C104.656 18.8682 105.491 18.5264 105.486 17.9453C105.491 17.3398 104.656 16.9932 103.318 16.998C101.971 16.9932 101.146 17.3398 101.15 17.9453ZM101.209 23.9707H105.438V22.5449H101.209V23.9707Z" fill="#A2A2A2"/>
</svg>
